<svg xmlns="http://www.w3.org/2000/svg" width="36" height="46" viewBox="0 0 46 46">
  <g id="icon_action_settings_24px" data-name="icon/action/settings_24px" transform="translate(46) rotate(90)">
    <rect id="Boundary" width="46" height="46" fill="none"/>
    <path id="_Color" data-name=" ↳Color" d="M21.7,37.934H14.3a.947.947,0,0,1-.927-.806L12.676,32.1a13.43,13.43,0,0,1-3.124-1.849l-4.6,1.9a.99.99,0,0,1-.32.053.909.909,0,0,1-.813-.48L.11,25.156a1,1,0,0,1,.233-1.209l3.911-3.13a12.3,12.3,0,0,1-.139-1.849,12.078,12.078,0,0,1,.161-1.849L.365,13.989A.932.932,0,0,1,.134,12.78l3.7-6.569a.919.919,0,0,1,.8-.49.889.889,0,0,1,.329.063l4.607,1.9A13.873,13.873,0,0,1,12.7,5.832L13.395.806A.908.908,0,0,1,14.3,0h7.4a.933.933,0,0,1,.927.806l.694,5.027a13.5,13.5,0,0,1,3.124,1.849l4.6-1.9a.989.989,0,0,1,.32-.053.91.91,0,0,1,.813.48l3.7,6.569a1,1,0,0,1-.233,1.209l-3.911,3.13a12.1,12.1,0,0,1,.139,1.849,15.843,15.843,0,0,1-.116,1.849l3.865,3.13a.932.932,0,0,1,.231,1.209l-3.7,6.567a.919.919,0,0,1-.8.49.889.889,0,0,1-.329-.063l-4.607-1.9A13.742,13.742,0,0,1,23.3,32.1L22.6,37.129A.885.885,0,0,1,21.7,37.934ZM18,11.855a7.115,7.115,0,0,0,0,14.225,7.115,7.115,0,0,0,0-14.225Z" transform="translate(6 4.991)" fill="#fff"/>
  </g>
</svg>
